<svg xmlns="http://www.w3.org/2000/svg" xmlns:xlink="http://www.w3.org/1999/xlink" viewBox="0 0 442.62 167.13"><defs><style>.cls-1{fill:#009ee3;}.cls-1,.cls-2,.cls-3,.cls-4,.cls-5,.cls-6{fill-rule:evenodd;}.cls-2{fill:url(#GradientFill_1);}.cls-3{fill:url(#GradientFill_1-2);}.cls-4{fill:url(#GradientFill_2);}.cls-5{fill:url(#GradientFill_2-2);}.cls-6{fill:#007ac3;}</style><linearGradient id="GradientFill_1" x1="22.33" y1="125.43" x2="114.62" y2="125.43" gradientUnits="userSpaceOnUse"><stop offset="0" stop-color="#009ee3"/><stop offset="1" stop-color="#7c6eb0"/></linearGradient><linearGradient id="GradientFill_1-2" x1="1.58" y1="58.39" x2="89.45" y2="62.33" xlink:href="#GradientFill_1"/><linearGradient id="GradientFill_2" x1="9.01" y1="87.51" x2="139.99" y2="84.85" gradientUnits="userSpaceOnUse"><stop offset="0" stop-color="#2f2483"/><stop offset="1" stop-color="#008bd2"/></linearGradient><linearGradient id="GradientFill_2-2" x1="0" y1="26.65" x2="140.78" y2="26.65" xlink:href="#GradientFill_2"/></defs><title>logo_1</title><g id="Слой_2" data-name="Слой 2"><g id="_1" data-name="1"><path class="cls-1" d="M187,13.53l-2.22,17.4H201.5l-.43,3.41h6.43l1.05-8h-1.92l1.6-12.82h-6.74l-1.65,12.82h-7.7l1.65-12.82Zm23.36,17.4h19l.58-4.49H217.72l.28-2.3h9.48l.55-4.27h-9.48l.25-2.09h11.71l.55-4.27H212.62L210.4,30.93Zm22.22,0h6.74l.89-7.06H248l-.89,7.06h6.74L256,13.51h-6.74l-.76,6h-7.7l.76-6h-6.74l-2.22,17.42Zm29.44,0h6.77l1.66-13h6.31l.56-4.42H258l-.56,4.42h6.29l-1.66,13Zm15,0,2.22-17.42h13a11.61,11.61,0,0,1,3.71.52,5.22,5.22,0,0,1,2.36,1.5,4.08,4.08,0,0,1,1,2.36,6.21,6.21,0,0,1-.4,2.92A5.36,5.36,0,0,1,297.33,23a7.7,7.7,0,0,1-2.74,1.35,13.43,13.43,0,0,1-3.67.47h-6.29l-.78,6.12Zm12.18-13.68H285.6L285.13,21h3.7a6,6,0,0,0,1.75-.22,2,2,0,0,0,1.12-.76,2.28,2.28,0,0,0,.3-1.5,1.1,1.1,0,0,0-.34-.78,1.86,1.86,0,0,0-.91-.4A7.48,7.48,0,0,0,289.29,17.25Z"/><path class="cls-1" d="M181.61,60.78h6.74l.59-4.68,3.28-2.4L196,60.78h8.38l-6.56-11.13,8.06-6.29h-9.12l-7,6,.76-6h-6.74l-2.22,17.42ZM218.16,42.9q5,0,7.66,1.72a6.34,6.34,0,0,1,2.94,5.07,12.09,12.09,0,0,1-.29,4.08A8.81,8.81,0,0,1,226.9,57a9.3,9.3,0,0,1-2.72,2.32,13.33,13.33,0,0,1-3.74,1.41,21.24,21.24,0,0,1-4.64.48q-5,0-7.66-1.69a6.28,6.28,0,0,1-2.92-5.05,11.62,11.62,0,0,1,.56-5,8.58,8.58,0,0,1,2.49-3.62,11.22,11.22,0,0,1,4.2-2.21,19.86,19.86,0,0,1,5.7-.75Zm-.56,4.46a6.59,6.59,0,0,0-1.68.2,4.84,4.84,0,0,0-1.48.66,4.1,4.1,0,0,0-1.15,1.17,5,5,0,0,0-.69,1.75,8.41,8.41,0,0,0-.11,2.38,3.33,3.33,0,0,0,1.13,2.4,4.28,4.28,0,0,0,2.79.82,5.57,5.57,0,0,0,2.21-.42,4.51,4.51,0,0,0,1.68-1.22,5,5,0,0,0,1-1.94,7.39,7.39,0,0,0,.2-2.58,3.33,3.33,0,0,0-1.11-2.39,4.23,4.23,0,0,0-2.78-.82Zm12.8,13.41h6.26l1.73-13.61,2.35,13.61H246l5.85-13.61-1.73,13.61h6.26l2.22-17.42h-9.86L244.22,54l-1.59-10.61h-10L230.4,60.78Zm29.83,0H267l1.68-13.08h7.7l-1.68,13.08h6.74l2.22-17.42H262.44l-2.22,17.42Zm28.2-8.47,1.16-9H309l-2.24,17.42H300l1.68-13.08h-5.88l-.63,4.75a16.87,16.87,0,0,1-1,4.22,8,8,0,0,1-1.79,2.78,6.35,6.35,0,0,1-1.33,1,6,6,0,0,1-1.6.58,9.73,9.73,0,0,1-2,.19,15.65,15.65,0,0,1-2-.14c-.66-.09-1.32-.19-2-.32l.52-4.06a3.43,3.43,0,0,0,.7.13,9.17,9.17,0,0,0,.94,0,2.61,2.61,0,0,0,1.35-.31,2.09,2.09,0,0,0,.8-.9,5.81,5.81,0,0,0,.45-1.43q.16-.83.28-1.89Zm22.07,8.47h19l.58-4.49H317.82l.28-2.3h9.48l.55-4.27h-9.48l.25-2.09h11.71l.55-4.27H312.72L310.5,60.78Zm22.22,0h6.74L340,56.1l3.28-2.4,3.79,7.08h8.38l-6.56-11.13L357,43.35h-9.12l-7,6,.76-6h-6.74l-2.22,17.42Zm39.36-10.1a2.29,2.29,0,0,0,0-.29c0-.1,0-.19,0-.29a2.8,2.8,0,0,0-1-2,3.68,3.68,0,0,0-2.38-.69,5.72,5.72,0,0,0-2.23.42A4.48,4.48,0,0,0,364.79,49a4.92,4.92,0,0,0-1,1.94,7.43,7.43,0,0,0-.2,2.6,3.33,3.33,0,0,0,1.13,2.4,4.28,4.28,0,0,0,2.79.82,4.58,4.58,0,0,0,2.6-.7,4.09,4.09,0,0,0,1.55-2.13h7.77a8.82,8.82,0,0,1-4.15,5.45,16.43,16.43,0,0,1-8.36,1.87q-5,0-7.67-1.71a6.34,6.34,0,0,1-2.93-5.08,11.56,11.56,0,0,1,.57-5,8.6,8.6,0,0,1,2.5-3.62,11.3,11.3,0,0,1,4.2-2.21,19.73,19.73,0,0,1,5.68-.75,18.45,18.45,0,0,1,5.57.74,7.71,7.71,0,0,1,3.53,2.16,5.87,5.87,0,0,1,1.42,3.48c0,.22,0,.44,0,.68s0,.48,0,.72Zm9,10.1h6.74l.89-7.06h7.7l-.89,7.06h6.74l2.22-17.42h-6.74l-.76,6h-7.7l.76-6h-6.74L381.1,60.78Zm38-17.88a19.86,19.86,0,0,0-5.7.75,11.22,11.22,0,0,0-4.2,2.21,8.58,8.58,0,0,0-2.49,3.62,11.62,11.62,0,0,0-.56,5,6.28,6.28,0,0,0,2.92,5.05q2.64,1.69,7.66,1.69a21.24,21.24,0,0,0,4.64-.48,13.34,13.34,0,0,0,3.74-1.41A9.3,9.3,0,0,0,427.85,57a8.82,8.82,0,0,0,1.57-3.21,12.08,12.08,0,0,0,.29-4.08,6.34,6.34,0,0,0-2.94-5.07q-2.66-1.72-7.66-1.72Zm-.56,4.46a4.23,4.23,0,0,1,2.78.82,3.33,3.33,0,0,1,1.11,2.39,7.39,7.39,0,0,1-.2,2.58,5,5,0,0,1-1,1.94,4.51,4.51,0,0,1-1.68,1.22,5.57,5.57,0,0,1-2.21.42,4.28,4.28,0,0,1-2.79-.82,3.33,3.33,0,0,1-1.13-2.4,8.4,8.4,0,0,1,.11-2.38,5.05,5.05,0,0,1,.69-1.75,4.11,4.11,0,0,1,1.15-1.17,4.84,4.84,0,0,1,1.48-.66,6.59,6.59,0,0,1,1.68-.2Zm12.22,13.41h6.77l2.32-17.42h-6.79l-2.29,17.42Zm.31-19.32h4.8l.43-3.41h-4.8l-.43,3.41Zm6.31,0h4.8l.43-3.41h-4.8Z"/><path class="cls-1" d="M181.11,71.91l-2.22,17.42h13.25a12.65,12.65,0,0,0,3.56-.47,7.57,7.57,0,0,0,2.66-1.35A5.39,5.39,0,0,0,200,85.39a6,6,0,0,0,.4-2.82,3.93,3.93,0,0,0-.9-2.27,4.88,4.88,0,0,0-2.24-1.42,11.23,11.23,0,0,0-3.55-.49H187l.34-2.74h11.78l.47-3.74ZM190,85.59h-3.94l.45-3.48h3.93a7.12,7.12,0,0,1,1.34.1,1.69,1.69,0,0,1,.83.36,1.09,1.09,0,0,1,.33.74,2.21,2.21,0,0,1-.25,1.4,1.69,1.69,0,0,1-1,.7,5.87,5.87,0,0,1-1.7.18Zm11.86,3.74h19l.58-4.49H209.22l.28-2.3H219l.55-4.27h-9.48l.25-2.09H222l.55-4.27H204.12L201.9,89.33Zm21.76-5.76c0,.22,0,.43,0,.63a5.6,5.6,0,0,0,0,.59A4.24,4.24,0,0,0,225,87.65a7.19,7.19,0,0,0,3.36,1.6,24.84,24.84,0,0,0,5.46.5,27.32,27.32,0,0,0,5-.4,11.9,11.9,0,0,0,3.64-1.24,5.48,5.48,0,0,0,2.18-2.1,5.18,5.18,0,0,0,.56-3,2.86,2.86,0,0,0-.85-1.89,4.24,4.24,0,0,0-2.16-1,4.9,4.9,0,0,0,1.94-.82,3.55,3.55,0,0,0,1.19-1.48,4.25,4.25,0,0,0,.3-2.06,3,3,0,0,0-1.23-2.2A7.75,7.75,0,0,0,241,72.3a29.63,29.63,0,0,0-5.32-.39,25,25,0,0,0-5.46.5,8,8,0,0,0-3.5,1.6,5,5,0,0,0-1.63,2.85h7.34a1.28,1.28,0,0,1,.9-.7,9,9,0,0,1,4.12.06c.5.18.77.46.8.83a.89.89,0,0,1-.33.85,2.29,2.29,0,0,1-1.11.37,14.15,14.15,0,0,1-1.77.08h-2.88l-.5,4h3.17a10.22,10.22,0,0,1,1.69.1,2.11,2.11,0,0,1,1,.37.94.94,0,0,1,.35.74,1.35,1.35,0,0,1-.9,1.35,7.06,7.06,0,0,1-2.77.4,6.15,6.15,0,0,1-2.56-.42,1.73,1.73,0,0,1-1-1.34Zm23.5,5.76h6.74l1.68-13.08h7.7L261.6,89.33h6.74l2.22-17.42H249.38l-2.22,17.42Zm25,0h19l.58-4.49H279.49l.28-2.3h9.48l.55-4.27h-9.48l.25-2.09h11.71l.55-4.27H274.38l-2.22,17.42Zm22.22,0h6.74l.59-4.68,3.28-2.4,3.79,7.08h8.38L310.6,78.2l8.06-6.29h-9.12l-7,6,.76-6H296.6l-2.22,17.42Zm44.75,0h-6.36L334.11,79l-8.65,10.37H317.9l2.22-17.42h6.53l-1.29,10,8.36-10h7.63Z"/><path class="cls-1" d="M266.21,108.06c-16.41,30.43-54.54,54-100.26,58.37-28.58,2.71-55.22-2.57-76.11-13.49,21,9.14,46.4,13.3,73.48,10.73C208.67,159.36,247,137.26,266.21,108.06Z"/><path class="cls-2" d="M46.65,101.92c-1.06,1-1.1,2.31,1.55,3.67,25.24,13,35.81,14.29,66.42,19.93-9.2,9.5-28.47,16.86-40.78,23.41-26.55-10.53-35.65-20.72-51.16-42.35h0c-1.51-2.08,2.42-3,4.34-3.15l1.27-.11.32,0,.2,0h.11l1.26-.1.31,0h.09l.22,0,.31,0L32,103l.3,0h0l.31,0,.31,0,.31,0,.31,0,.31,0h.31l.31,0,.31,0,.31,0,.31,0,.31,0h.07l.23,0,.31,0,.61,0,.31,0,.27,0h0l.31,0,.31,0,.61,0,.3,0h.31l.3,0,.91-.07.3,0H41l.25,0,.3,0,.3,0,.3,0,.3,0,.25,0h0l.3,0,.3,0,.3,0,.3,0,.3,0h.3l.3,0,.3,0,.3,0,.3,0h0l.59,0Z"/><path class="cls-3" d="M28.52,48.82c-5.13,5.12,5.87,9,9.21,10.06A254.52,254.52,0,0,0,63.52,65.7c-8.69-.56-20,.46-30.62,2.24-3.93.66-8,1.2-11.45,2.12l-1.38-.78c-5.38-2.9-10.78-6-14.65-8.5-5.85-3.83-4-7,2-7.43C14.7,51.73,21,50.68,28.52,48.82Z"/><path class="cls-4" d="M138.92,77l-.24.79c-2.53,8.16-7.17,19-11.19,25.52C93.11,95,64.14,97.05,25.86,101.21c-1.92.21-5.85,1.22-4.34,3.34.27.37-3.73-4.07-4-4.45a92.29,92.29,0,0,1-8.83-20,2.67,2.67,0,0,1-.24-.8c0-2.09.15-4.41,4.73-5.82a7.1,7.1,0,0,1,1-.16c18.38-2.84,39.45-7,57-3.82,21.94,4,41.57,2.93,63.18,1.45a3.74,3.74,0,0,1,.73.09A4.69,4.69,0,0,1,138.92,77Z"/><path class="cls-5" d="M3.55,16.84c.27-.2.71-.13,1.07-.19C26.56,12.84,50.21,8,73.65,0c18.85,8.3,46.24,12.74,68.9,16.53l.62.1c3,.61,4.65,2,4.56,5.44-.27,10.7-2.49,20.48-3.78,29.42-9.85-10.6-30.52-17.87-50.69-18.32-24.34-.54-64.07,13.52-87,17.21-1.56.25-4,.92-4.3,2.92A188.92,188.92,0,0,1,.06,22.25a5,5,0,0,1,0-1C.64,19,.11,19.41,3.55,16.84Z"/><path class="cls-6" d="M117.15,44c.33,2,.4,2.18-.09,7S109,65.42,98.33,65,78.77,55.08,79.65,46.51l20-2.5L82.79,40.4c8.5-2.76,22.45-5.27,34.36,3.56Zm-6.83-1.9a4,4,0,1,0,4,4A4,4,0,0,0,110.32,42.06Z"/></g></g></svg>