<?xml version="1.0" encoding="utf-8"?>
<svg version="1.1" id="Слой_1" xmlns="http://www.w3.org/2000/svg" xmlns:xlink="http://www.w3.org/1999/xlink" x="0px" y="0px"
	 viewBox="0 0 442.6 167.1" style="enable-background:new 0 0 442.6 167.1;" xml:space="preserve">
<style type="text/css">
	.st0{fill:#009EE3;}
	.st1{fill:url(#SVGID_1_);}
	.st2{fill:url(#SVGID_2_);}
	.st3{fill:url(#SVGID_3_);}
	.st4{fill:url(#SVGID_4_);}
	.st5{fill:#007AC3;}
</style>
<title>logo_1</title>
<g id="Слой_2">
	<g id="_1">
		<path class="st0" d="M266.2,108.1c-16.4,30.4-54.5,54-100.3,58.4c-28.6,2.7-55.2-2.6-76.1-13.5c21,9.1,46.4,13.3,73.5,10.7
			C208.7,159.4,247,137.3,266.2,108.1z"/>
		
			<linearGradient id="SVGID_1_" gradientUnits="userSpaceOnUse" x1="22.3422" y1="41.855" x2="114.62" y2="41.855" gradientTransform="matrix(1 0 0 -1 0 167.28)">
			<stop  offset="0" style="stop-color:#009EE3"/>
			<stop  offset="1" style="stop-color:#7C6EB0"/>
		</linearGradient>
		<path class="st1" d="M46.7,101.9c-1.1,1-1.1,2.3,1.5,3.7c25.2,13,35.8,14.3,66.4,19.9c-9.2,9.5-28.5,16.9-40.8,23.4
			c-26.5-10.5-35.7-20.7-51.2-42.3l0,0c-1.5-2.1,2.4-3,4.3-3.2l1.3-0.1h0.3h0.2h0.1l1.3-0.1h0.3h0.1h0.2h0.3L32,103h0.3l0,0h0.3h0.3
			h0.3h0.3h0.3h0.3h0.3h0.3h0.3h0.3h0.3h0.1H36h0.3h0.6h0.3h0.3l0,0h0.3h0.3h0.6H39h0.3h0.3l0.9-0.1h0.3H41h0.3h0.3h0.3h0.3h0.3h0.3
			l0,0H43h0.3h0.3h0.3h0.3h0.3h0.3h0.3h0.3h0.3l0,0h0.6L46.7,101.9z"/>
		
			<linearGradient id="SVGID_2_" gradientUnits="userSpaceOnUse" x1="1.58" y1="108.8895" x2="89.45" y2="104.9495" gradientTransform="matrix(1 0 0 -1 0 167.28)">
			<stop  offset="0" style="stop-color:#009EE3"/>
			<stop  offset="1" style="stop-color:#7C6EB0"/>
		</linearGradient>
		<path class="st2" d="M28.5,48.8c-5.1,5.1,5.9,9,9.2,10.1c8.5,2.7,17.1,5,25.8,6.8c-8.7-0.6-20,0.5-30.6,2.2
			c-3.9,0.7-8,1.2-11.5,2.1l-1.4-0.8c-5.4-2.9-10.8-6-14.6-8.5c-5.8-3.8-4-7,2-7.4C14.7,51.7,21,50.7,28.5,48.8z"/>
		
			<linearGradient id="SVGID_3_" gradientUnits="userSpaceOnUse" x1="9.0101" y1="79.7662" x2="139.9901" y2="82.4262" gradientTransform="matrix(1 0 0 -1 0 167.28)">
			<stop  offset="0" style="stop-color:#2F2483"/>
			<stop  offset="1" style="stop-color:#008BD2"/>
		</linearGradient>
		<path class="st3" d="M138.9,77l-0.2,0.8c-2.5,8.2-7.2,19-11.2,25.5C93.1,95,64.1,97,25.9,101.2c-1.9,0.2-5.9,1.2-4.3,3.3
			c0.3,0.4-3.7-4.1-4-4.4c-3.7-6.3-6.7-13-8.8-20c-0.1-0.3-0.2-0.5-0.2-0.8c0-2.1,0.1-4.4,4.7-5.8c0.3-0.1,0.7-0.1,1-0.2
			c18.4-2.8,39.5-7,57-3.8c21.9,4,41.6,2.9,63.2,1.4c0.2,0,0.5,0,0.7,0.1c2.6,0.4,4.3,2.7,4,5.3C139,76.6,139,76.8,138.9,77z"/>
		
			<linearGradient id="SVGID_4_" gradientUnits="userSpaceOnUse" x1="1.710802e-02" y1="140.63" x2="140.7971" y2="140.63" gradientTransform="matrix(1 0 0 -1 0 167.28)">
			<stop  offset="0" style="stop-color:#2F2483"/>
			<stop  offset="1" style="stop-color:#008BD2"/>
		</linearGradient>
		<path class="st4" d="M3.5,16.8c0.3-0.2,0.7-0.1,1.1-0.2C26.6,12.8,50.2,8,73.7,0c18.8,8.3,46.2,12.7,68.9,16.5l0.6,0.1
			c3,0.6,4.6,2,4.6,5.4c-0.3,10.7-2.5,20.5-3.8,29.4c-9.9-10.6-30.5-17.9-50.7-18.3c-24.3-0.5-64.1,13.5-87,17.2
			c-1.6,0.3-4,0.9-4.3,2.9C0.5,43-0.2,32.6,0.1,22.2c0-0.3,0-0.7,0-1C0.6,19,0.1,19.4,3.5,16.8z"/>
		<path class="st5" d="M117.2,44c0.3,2,0.4,2.2-0.1,7S109,65.4,98.3,65s-19.6-9.9-18.7-18.5l20-2.5l-16.9-3.6
			C91.3,37.6,105.2,35.1,117.2,44L117.2,44z M110.3,42.1c-2.2,0-4,1.8-4,4s1.8,4,4,4s4-1.8,4-4C114.3,43.9,112.6,42.1,110.3,42.1
			C110.3,42.1,110.3,42.1,110.3,42.1L110.3,42.1z"/>
	</g>
</g>
<g>
	<path class="st0" d="M188.3,29.6h2.6l-2.3,7.9h-6.1l1.1-3.8h-15.5l4.5-16h6.6l-3.3,11.8h5.9l3.3-11.8h6.5L188.3,29.6z"/>
	<path class="st0" d="M213.1,21.6h-11.2l-0.6,2h10.4l-1.1,3.7h-10.4l-0.7,2.3h11.5l-1.1,4.1h-18l4.5-16h17.7L213.1,21.6z"/>
	<path class="st0" d="M233,33.8h-6.5l1.8-6.3h-6.2l-1.8,6.3h-6.5l4.5-16h6.5l-1.6,5.5h6.2l1.6-5.5h6.5L233,33.8z"/>
	<path class="st0" d="M257.7,21.8h-5.9l-3.4,12h-6.5l3.4-12h-6.1l1.1-4.1h18.5L257.7,21.8z"/>
	<path class="st0" d="M271.3,17.7c4.4,0,7.9,1.1,7.9,4.9c0,2.1-1.3,4.1-3.5,5.1c-2,0.9-4.2,1.1-6.5,1.1h-3.8l-1.4,5h-6.5l4.5-16
		H271.3z M266.5,25.1h3c1.9,0,3.4-0.3,3.4-1.9c0-1.2-1.2-1.5-2.6-1.5h-2.8L266.5,25.1z"/>
	<path class="st0" d="M183.2,54.3l6.2,9.4H182l-3.9-6.2l-2.3,1.5l-1.3,4.7h-6.5l4.5-16h6.5l-0.8,3.1c-0.2,0.9-0.5,1.7-0.9,2.6
		c1-0.9,2.3-1.8,3.5-2.7l4.2-3h8.6L183.2,54.3z"/>
	<path class="st0" d="M201.8,64.1c-6,0-9.7-2.5-9.7-7.2c0-5.4,4.7-9.6,12.1-9.6c5.7,0,9.7,2.4,9.7,6.9
		C213.9,59.6,209.5,64.1,201.8,64.1z M198.7,57.2c0,2,1.3,3.1,3.6,3.1c3.5,0,5-3.8,5-5.9c0-1.7-0.9-3.1-3.4-3.1
		C200.1,51.2,198.7,54.8,198.7,57.2z"/>
	<path class="st0" d="M240,63.8h-6.1l2-7c0.5-1.8,1.1-3.6,1.8-5.3l-0.5,0.8c-0.9,1.7-2.2,3.9-3,5l-4.2,6.5h-4.9l-0.5-6.4
		c-0.1-1.9-0.2-3.8-0.2-5.8c-0.3,1.8-0.7,3.6-1.1,5.4l-1.9,6.8h-6.2l4.5-16h9.1l0.2,5c0,0.9,0,1.7,0,2.6c0,1.2,0,1.7-0.1,3.1
		c0.9-2.6,2.5-5.2,4.1-7.6l2-3h9.4L240,63.8z"/>
	<path class="st0" d="M263.5,63.8H257l3.4-11.9h-6.2l-3.4,11.9h-6.5l4.5-16h19.2L263.5,63.8z"/>
	<path class="st0" d="M291.8,47.7l-4.5,16h-6.5l3.4-11.9h-3.9l-0.3,0.9c-1.8,6.4-3.2,11.3-10.3,11.3c-0.8,0-2-0.1-2.8-0.4l1.1-3.8
		c0.2,0.1,1,0.2,1.4,0.2c1.9,0,2.7-2,3.7-5.5l2-6.9H291.8z"/>
	<path class="st0" d="M313.1,51.6h-11.2l-0.6,2h10.4l-1.1,3.7h-10.4l-0.7,2.3h11.5l-1.1,4.1h-18l4.5-16h17.7L313.1,51.6z"/>
	<path class="st0" d="M329.3,54.3l6.2,9.4H328l-3.9-6.2l-2.3,1.5l-1.4,4.7h-6.5l4.5-16h6.5l-0.8,3.1c-0.2,0.9-0.5,1.7-0.9,2.6
		c1-0.9,2.3-1.8,3.5-2.7l4.2-3h8.6L329.3,54.3z"/>
	<path class="st0" d="M347.8,64.1c-6,0-9.4-2.6-9.4-7.2c0-5.4,4.3-9.6,11.6-9.6c5.5,0,9.1,2.3,9.1,5.9c0,0.1,0,0.2,0,0.4h-6.3
		c-0.1-1.5-0.9-2.4-3-2.4c-3.6,0-4.9,3.4-4.9,5.6c0,2.2,1.2,3.4,3.4,3.4c1.9,0,3.2-0.9,3.7-2.6h6.5C357.3,62,353.3,64.1,347.8,64.1z
		"/>
	<path class="st0" d="M379.4,63.8h-6.5l1.8-6.3h-6.2l-1.8,6.3h-6.5l4.5-16h6.5l-1.6,5.5h6.2l1.6-5.5h6.5L379.4,63.8z"/>
	<path class="st0" d="M394.9,64.1c-6,0-9.7-2.5-9.7-7.2c0-5.4,4.7-9.6,12.1-9.6c5.7,0,9.7,2.4,9.7,6.9
		C407,59.6,402.6,64.1,394.9,64.1z M391.7,57.2c0,2,1.3,3.1,3.6,3.1c3.5,0,5-3.8,5-5.9c0-1.7-0.9-3.1-3.4-3.1
		C393.2,51.2,391.7,54.8,391.7,57.2z"/>
	<path class="st0" d="M426.9,63.8h-6.2l1.7-6c0.3-1,0.9-3,1.3-3.9l-9,10h-7l4.5-16h6.3l-1.7,6.1c-0.3,0.9-0.8,2.6-1.2,3.8l9-9.9h7
		L426.9,63.8z M420.5,43.3c0,0.1,0,0.1,0,0.2c0,1.2,1.2,1.3,2,1.3c1.5,0,2.4-0.4,2.9-1.4h3.1c-0.5,2.7-3.2,3.8-6.4,3.8
		c-3.1,0-5-0.9-5-3c0-0.2,0-0.5,0.1-0.8H420.5z"/>
	<path class="st0" d="M177,83.6h4.8c3.1,0,7,0.8,7,4.3c0,2.8-1.9,4.7-4.9,5.5c-1.3,0.3-2.8,0.4-4.4,0.4h-11.7l4.6-16H190l-1.1,3.8
		h-11.3L177,83.6z M179.9,87.1H176l-0.8,2.9h4.3c1.6,0,2.8-0.2,2.8-1.8C182.4,87.3,181.4,87.1,179.9,87.1z"/>
	<path class="st0" d="M212,81.6h-11.2l-0.6,2h10.4l-1,3.7h-10.4l-0.7,2.3H210l-1.1,4.1h-18l4.5-16h17.7L212,81.6z"/>
	<path class="st0" d="M222.6,86.9c-0.5,0-1.1,0-1.6,0l0.9-3.1c0.4,0,0.9,0,1.3,0c1.7,0,3.6-0.2,3.6-1.7c0-0.8-1-1.3-2.5-1.3
		c-1.7,0-3.1,0.6-3.3,1.6h-6.1c0.7-3.6,4.8-5.2,9.9-5.2c5.6,0,8.1,1.6,8.1,4c0,1.9-1.6,3.3-3.8,3.8c1.7,0.3,3.2,1.4,3.2,3.3
		c0,3.8-4.4,5.7-10,5.7c-4.8,0-9.3-1.5-9.3-5.4v-0.3h6.4c0,1.4,1.1,2.1,3.2,2.1c1.9,0,3.2-0.6,3.2-1.9
		C225.8,87.3,224.3,86.9,222.6,86.9z"/>
	<path class="st0" d="M244.9,94.1c-6,0-9.7-2.5-9.7-7.2c0-5.4,4.7-9.6,12.1-9.6c5.7,0,9.7,2.4,9.7,6.9
		C257,89.6,252.6,94.1,244.9,94.1z M241.8,87.2c0,2,1.3,3.1,3.6,3.1c3.5,0,5-3.8,5-5.9c0-1.7-0.9-3.1-3.4-3.1
		C243.2,81.2,241.8,84.8,241.8,87.2z"/>
	<path class="st0" d="M277.5,93.8H271l3.4-11.9h-6.2l-3.4,11.9h-6.5l4.5-16h19.2L277.5,93.8z"/>
	<path class="st0" d="M302.1,93.8h-6.5l-0.4-2.3h-7l-1.6,2.3h-6.8l12.4-16h6.5L302.1,93.8z M291.9,86.3l-1.2,1.7h4.1l-0.4-2.9
		c-0.2-0.9-0.2-1.4-0.2-2.3C293.5,83.9,292.4,85.5,291.9,86.3z"/>
	<path class="st0" d="M314.7,94.1c-6,0-9.4-2.6-9.4-7.2c0-5.4,4.3-9.6,11.6-9.6c5.5,0,9.1,2.3,9.1,5.9c0,0.1,0,0.2,0,0.4h-6.3
		c-0.1-1.5-0.9-2.4-3-2.4c-3.6,0-4.9,3.4-4.9,5.6c0,2.2,1.2,3.4,3.4,3.4c1.9,0,3.2-0.9,3.7-2.6h6.5C324.2,92,320.2,94.1,314.7,94.1z
		"/>
	<path class="st0" d="M346.3,93.8h-6.5l1.8-6.3h-6.2l-1.8,6.3H327l4.5-16h6.5l-1.6,5.5h6.2l1.6-5.5h6.5L346.3,93.8z"/>
	<path class="st0" d="M361.8,94.1c-6,0-9.7-2.5-9.7-7.2c0-5.4,4.7-9.6,12.1-9.6c5.7,0,9.7,2.4,9.7,6.9
		C373.9,89.6,369.5,94.1,361.8,94.1z M358.7,87.2c0,2,1.3,3.1,3.6,3.1c3.5,0,5-3.8,5-5.9c0-1.7-0.9-3.1-3.4-3.1
		C360.1,81.2,358.7,84.8,358.7,87.2z"/>
	<path class="st0" d="M386.3,94.1c-6,0-9.4-2.6-9.4-7.2c0-5.4,4.3-9.6,11.6-9.6c5.5,0,9.1,2.3,9.1,5.9c0,0.1,0,0.2,0,0.4h-6.3
		c-0.1-1.5-0.9-2.4-3-2.4c-3.6,0-4.9,3.4-4.9,5.6c0,2.2,1.2,3.4,3.4,3.4c1.9,0,3.2-0.9,3.7-2.6h6.5C395.9,92,391.9,94.1,386.3,94.1z
		"/>
	<path class="st0" d="M418.6,81.8h-5.9l-3.4,12h-6.5l3.4-12h-6.1l1.1-4.1h18.5L418.6,81.8z"/>
	<path class="st0" d="M437.6,93.8h-6.2l1.7-6c0.3-1,0.9-3,1.3-3.9l-9,10h-7l4.6-16h6.3l-1.7,6.1c-0.3,0.9-0.8,2.6-1.2,3.8l9-9.9h7
		L437.6,93.8z"/>
</g>
</svg>
